<svg width="25" height="28" viewBox="0 0 25 28" fill="none" xmlns="http://www.w3.org/2000/svg">
<g clip-path="url(#clip0_1640_2951)">
<path d="M9.91943 11.7773C9.10678 11.7773 8.46521 12.4676 8.46521 13.3098C8.46521 14.1519 9.12103 14.8422 9.91943 14.8422C10.7321 14.8422 11.3736 14.1519 11.3736 13.3098C11.3879 12.4676 10.7321 11.7773 9.91943 11.7773ZM15.1232 11.7773C14.3106 11.7773 13.669 12.4676 13.669 13.3098C13.669 14.1519 14.3248 14.8422 15.1232 14.8422C15.9359 14.8422 16.5775 14.1519 16.5775 13.3098C16.5775 12.4676 15.9359 11.7773 15.1232 11.7773Z" fill="#BCBCC5"/>
<path d="M22.0714 0H2.92857C1.31429 0 0 1.288 0 2.884V21.812C0 23.408 1.31429 24.696 2.92857 24.696H19.1286L18.3714 22.106L20.2 23.772L21.9286 25.34L25 28V2.884C25 1.288 23.6857 0 22.0714 0ZM16.5571 18.284C16.5571 18.284 16.0429 17.682 15.6143 17.15C17.4857 16.632 18.2 15.484 18.2 15.484C17.6143 15.862 17.0571 16.128 16.5571 16.31C15.8429 16.604 15.1571 16.8 14.4857 16.912C13.1143 17.164 11.8571 17.094 10.7857 16.898C9.97143 16.744 9.27143 16.52 8.68571 16.296C8.35714 16.17 8 16.016 7.64286 15.82C7.6 15.792 7.55714 15.778 7.51429 15.75C7.48571 15.736 7.47143 15.722 7.45714 15.708C7.2 15.568 7.05714 15.47 7.05714 15.47C7.05714 15.47 7.74286 16.59 9.55714 17.122C9.12857 17.654 8.6 18.284 8.6 18.284C5.44286 18.186 4.24286 16.156 4.24286 16.156C4.24286 11.648 6.3 7.994 6.3 7.994C8.35714 6.482 10.3143 6.524 10.3143 6.524L10.4571 6.692C7.88571 7.42 6.7 8.526 6.7 8.526C6.7 8.526 7.01429 8.358 7.54286 8.12C9.07143 7.462 10.2857 7.28 10.7857 7.238C10.8714 7.224 10.9429 7.21 11.0286 7.21C11.9 7.098 12.8857 7.07 13.9143 7.182C15.2714 7.336 16.7286 7.728 18.2143 8.526C18.2143 8.526 17.0857 7.476 14.6571 6.748L14.8571 6.524C14.8571 6.524 16.8143 6.482 18.8714 7.994C18.8714 7.994 20.9286 11.648 20.9286 16.156C20.9286 16.156 19.7143 18.186 16.5571 18.284Z" fill="#BCBCC5"/>
</g>
<defs>
<clipPath id="clip0_1640_2951">
<rect width="25" height="28" fill="white"/>
</clipPath>
</defs>
</svg>
