<svg width="27" height="27" viewBox="0 0 27 27" fill="none" xmlns="http://www.w3.org/2000/svg">
<g clip-path="url(#clip0_1640_2965)">
<path d="M13.4999 26.5499C20.892 26.5499 26.8845 20.7072 26.8845 13.4999C26.8845 6.29262 20.892 0.449951 13.4999 0.449951C6.10784 0.449951 0.115356 6.29262 0.115356 13.4999C0.115356 20.7072 6.10784 26.5499 13.4999 26.5499Z" fill="#BCBCC5"/>
<path d="M5.68585 13.3868L14.6992 9.76601C15.5889 9.38885 18.6062 8.18191 18.6062 8.18191C18.6062 8.18191 19.9988 7.65388 19.8828 8.93625C19.8441 9.46428 19.5346 11.3124 19.2252 13.3114L18.2581 19.2329C18.2581 19.2329 18.1807 20.1004 17.5231 20.2513C16.8655 20.4021 15.7823 19.7232 15.5889 19.5724C15.4342 19.4592 12.6876 17.7619 11.6818 16.9322C11.4111 16.7059 11.1016 16.2533 11.7205 15.7252C13.1131 14.4806 14.7765 12.9342 15.7823 11.9536C16.2465 11.501 16.7107 10.4449 14.7765 11.7273L9.32213 15.3104C9.32213 15.3104 8.70319 15.6875 7.54267 15.3481C6.38216 15.0086 5.02823 14.556 5.02823 14.556C5.02823 14.556 4.09982 13.9903 5.68585 13.3868Z" fill="white"/>
</g>
<defs>
<clipPath id="clip0_1640_2965">
<rect width="27" height="27" fill="white"/>
</clipPath>
</defs>
</svg>
