<svg width="52" height="52" viewBox="0 0 52 52" fill="none" xmlns="http://www.w3.org/2000/svg">
<g clip-path="url(#clip0_1632_4495)">
<path d="M47.1852 0H4.81481C2.15567 0 0 2.15567 0 4.81481V47.1852C0 49.8443 2.15567 52 4.81481 52H47.1852C49.8443 52 52 49.8443 52 47.1852V4.81481C52 2.15567 49.8443 0 47.1852 0Z" fill="white"/>
<path d="M47.1236 30.9163C47.1236 38.5897 41.1109 43.6862 33.2088 43.6857H25.4146V37.9599H32.9223C37.1594 37.9599 40.7103 35.2111 40.7103 31.0309C40.7103 28.0664 38.9726 25.803 36.4781 24.711C35.4068 24.2416 34.1958 23.9878 32.9223 23.9873H29.8505H21.3547V27.622V33.3478V35.5077H15.1133V18.146L30.2313 18.1465H33.3802C34.6297 18.1465 35.8319 18.277 36.9706 18.5293C42.9256 19.8485 47.1231 24.4741 47.1231 30.9163H47.1236Z" fill="#564DBA"/>
<path d="M43.1215 8.33643H35.7635V15.6944H43.1215V8.33643Z" fill="#564DBA"/>
<path d="M26.7338 8.69747C25.5951 8.44517 24.3928 8.31469 23.1434 8.31469H19.9945L4.87646 8.31421V27.4223H11.1184V23.516L11.1179 17.7902V14.1555H19.6136H22.6855C23.959 14.156 25.1699 14.4098 26.2412 14.8792C26.7526 15.1031 27.2312 15.3766 27.6703 15.6948H35.764C34.1351 12.1083 30.8562 9.61084 26.7343 8.69795L26.7338 8.69747Z" fill="#564DBA"/>
</g>
<defs>
<clipPath id="clip0_1632_4495">
<rect width="52" height="52" fill="white"/>
</clipPath>
</defs>
</svg>
