<svg xmlns="http://www.w3.org/2000/svg" version="1.1" xmlns:xlink="http://www.w3.org/1999/xlink" xmlns:svgjs="http://svgjs.dev/svgjs" width="1069.01" height="895.03"><svg id="SvgjsSvg1001" xmlns="http://www.w3.org/2000/svg" viewBox="0 0 1069.01 895.03">
  <defs>
    <style>
      .cls-1 {
        fill: #564dba;
      }
    </style>
  </defs>
  <path class="cls-1" d="M1069.01,571.92c0,194.17-152.15,323.12-352.1,323.11h-197.22s0-144.89,0-144.89h189.97c107.21,0,197.06-69.56,197.06-175.32,0-75.02-43.97-132.29-107.09-159.92-27.11-11.88-57.75-18.3-89.97-18.31h-77.73s-214.97,0-214.97,0v91.98s0,144.89,0,144.89v54.65s-157.93,0-157.93,0V248.79s382.55.01,382.55.01h79.68c31.62,0,62.04,3.31,90.85,9.69,150.68,33.38,256.9,150.43,256.9,313.44Z"></path>
  <rect class="cls-1" x="781.55" y=".56" width="186.18" height="186.18"></rect>
  <path class="cls-1" d="M553.07,9.7C524.26,3.32,493.84.01,462.22.01h-79.68S0,0,0,0v483.5h157.94v-98.84s-.01-144.89-.01-144.89v-91.98s214.97,0,214.97,0h77.73c32.23.01,62.87,6.43,89.97,18.31,12.93,5.66,25.04,12.59,36.16,20.64h204.8c-41.22-90.76-124.19-153.95-228.48-177.05Z"></path>
</svg><style>@media (prefers-color-scheme: light) { :root { filter: none; } }
@media (prefers-color-scheme: dark) { :root { filter: none; } }
</style></svg>