<svg width="71" height="55" viewBox="0 0 71 55" fill="none" xmlns="http://www.w3.org/2000/svg">
<g filter="url(#filter0_d_3546_952)">
<path fill-rule="evenodd" clip-rule="evenodd" d="M14 39H4V11.2C4 7.27963 4 5.31945 4.76295 3.82207C5.43407 2.50493 6.50493 1.43407 7.82207 0.762954C9.31945 0 11.2796 0 15.2 0H55.8C59.7204 0 61.6805 0 63.1779 0.762954C64.4951 1.43407 65.5659 2.50493 66.237 3.82207C67 5.31945 67 7.27963 67 11.2V27.8C67 31.7204 67 33.6805 66.237 35.1779C65.5659 36.4951 64.4951 37.5659 63.1779 38.237C61.6805 39 59.7204 39 55.8 39H14Z" fill="#7761F5"/>
<path d="M4 39L14 47V39H4Z" fill="#2E2871"/>
</g>
<defs>
<filter id="filter0_d_3546_952" x="0" y="0" width="71" height="55" filterUnits="userSpaceOnUse" color-interpolation-filters="sRGB">
<feFlood flood-opacity="0" result="BackgroundImageFix"/>
<feColorMatrix in="SourceAlpha" type="matrix" values="0 0 0 0 0 0 0 0 0 0 0 0 0 0 0 0 0 0 127 0" result="hardAlpha"/>
<feOffset dy="4"/>
<feGaussianBlur stdDeviation="2"/>
<feComposite in2="hardAlpha" operator="out"/>
<feColorMatrix type="matrix" values="0 0 0 0 0.291667 0 0 0 0 0.291667 0 0 0 0 0.291667 0 0 0 0.25 0"/>
<feBlend mode="normal" in2="BackgroundImageFix" result="effect1_dropShadow_3546_952"/>
<feBlend mode="normal" in="SourceGraphic" in2="effect1_dropShadow_3546_952" result="shape"/>
</filter>
</defs>
</svg>
